<svg width="360" height="360" viewBox="0 0 360 360" fill="none" xmlns="http://www.w3.org/2000/svg">
<g id="local-cms">
<g id="logo">
<path id="Vector" d="M187.722 126.893C192.241 170.137 175.748 204.728 144.636 233.082C129.454 246.955 114.745 261.256 106.228 280.37C103.616 286.873 101.45 293.546 99.7433 300.343C98.0488 305.991 100.466 307.821 106.115 307.776C136.119 307.618 166.123 307.776 196.149 307.776H253.83C261.828 307.776 262.212 307.415 262.212 299.688C262.212 285.318 262.077 270.949 262.212 256.602C262.212 251.089 260.156 249.191 254.711 249.237C227.238 249.395 199.764 249.237 172.291 249.237C169.647 249.237 167.004 248.988 162.982 248.785C170.122 240.064 174.279 231.817 187.361 232.382C215.422 233.602 243.573 232.902 271.657 232.676C277.282 232.676 278.932 234.37 278.864 239.905C278.608 265.677 278.608 291.449 278.864 317.22C278.864 322.575 277.531 324.54 271.77 324.518C210.933 324.307 150.074 324.307 89.1922 324.518C83.4986 324.518 82.2334 322.665 82.0527 317.243C80.9682 283.353 96.7384 257.37 119.445 234.347C130.086 223.525 141.338 213.177 151.076 201.519C162.684 187.907 169.788 171.031 171.41 153.215C172.426 141.172 181.78 135.275 187.722 126.893Z" fill="#34485C"/>
<path id="Vector_2" d="M85.4417 231.659C84.3788 219.242 85.7291 206.736 89.4181 194.832C96.1961 172.961 110.114 155.79 126.313 140.382C139.643 127.707 153.222 115.325 162.327 98.9904C168.976 86.9486 173.212 73.7256 174.799 60.062C175.454 54.5718 173.466 52.4932 167.84 52.561C147.777 52.7568 127.706 52.7568 107.628 52.561C101.822 52.561 99.924 54.6622 99.9918 60.3557C100.24 78.9275 100.127 97.5218 100.127 116.116C100.127 129.559 96.5802 136.202 84.312 144.968C84.0635 142.325 83.6794 140.133 83.6794 137.919C83.6794 106.672 83.7923 75.4255 83.6794 44.1562C83.4986 37.8075 85.5094 36 91.9034 36C122.54 36.3389 153.177 36.3163 183.723 36C189.846 36 191.54 38.0108 191.744 43.9755C193.167 83.8076 176.945 115.71 148.5 142.189C135.622 154.118 122.54 166.002 113.887 181.456C109.249 189.926 105.646 198.922 103.155 208.252C102.023 213.184 99.8599 217.819 96.8067 221.854C93.7536 225.888 89.8801 229.23 85.4417 231.659Z" fill="#43B07E"/>
</g>
</g>
</svg>
