<svg width="40" height="40" viewBox="0 0 40 40" fill="none" xmlns="http://www.w3.org/2000/svg">
<path d="M9.5335 10.1621H5.73096L14.7907 31.1554H18.5941L9.5335 10.1621Z" fill="#35495E"/>
<path d="M27.284 27.6044C23.067 27.6044 19.6491 24.1865 19.6491 19.9695C19.6491 15.7525 23.067 12.3346 27.284 12.3346C30.7548 12.3346 33.6841 14.6507 34.6119 17.8222L37.9992 16.752C36.6168 12.1427 32.3427 8.78361 27.2831 8.78361C22.5408 8.78361 18.4876 11.7351 16.8605 15.9009L12.7944 26.4634L5.73016 10.1621H1.92761L10.9882 31.1554H14.7874H14.7908L14.7891 31.1511L17.2152 24.8483C19.0274 28.5817 22.8555 31.1554 27.284 31.1554C32.3435 31.1554 36.6177 27.7963 38 23.187L34.6128 22.1168C33.685 25.2883 30.7548 27.6044 27.284 27.6044Z" fill="#41B883"/>
<path d="M27.284 24.0381C25.0369 24.0381 23.2153 22.2166 23.2153 19.9695C23.2153 17.7224 25.0369 15.9009 27.284 15.9009C29.1601 15.9009 30.7386 17.1707 31.2093 18.8976L34.6127 17.8214C33.6849 14.6507 30.7556 12.3337 27.2848 12.3337C24.1517 12.3337 21.4603 14.2209 20.2826 16.9208L20.2767 16.908L14.7805 31.1554H18.5831L21.126 24.4816C22.5152 26.3747 24.7563 27.6036 27.2848 27.6036C30.7556 27.6036 33.6849 25.2874 34.6127 22.116L31.2093 21.0406C30.7386 22.7683 29.1601 24.0381 27.284 24.0381Z" fill="#35495E"/>
</svg>
